<svg xmlns="http://www.w3.org/2000/svg" viewBox="0 0 900 600" preserveAspectRatio="xMidYMid slice">
  <defs>
    <linearGradient id="a" x1="0" y1="0" x2="1" y2="1"><stop stop-color="#062b2d"/><stop offset="1" stop-color="#031416"/></linearGradient>
    <linearGradient id="b" x1="0" y1="0" x2="1" y2="1"><stop stop-color="#10b9a4"/><stop offset="1" stop-color="#56d97c"/></linearGradient>
    <linearGradient id="c" x1="0" y1="0" x2="0" y2="1"><stop stop-color="#fff0c8"/><stop offset=".48" stop-color="#28cf99"/><stop offset="1" stop-color="#067a79"/></linearGradient>
    <radialGradient id="d" cx=".5" cy=".45" r=".6"><stop stop-color="#56d97c" stop-opacity=".75"/><stop offset="1" stop-color="#56d97c" stop-opacity="0"/></radialGradient>
    <radialGradient id="e" cx=".5" cy=".5" r=".55"><stop stop-color="#fff1c8" stop-opacity=".55"/><stop offset="1" stop-color="#fff1c8" stop-opacity="0"/></radialGradient>
    <filter id="f" x="-60%" y="-60%" width="220%" height="220%"><feGaussianBlur stdDeviation="20"/></filter>
    <filter id="g" x="-25%" y="-25%" width="150%" height="150%"><feGaussianBlur stdDeviation="2"/></filter>
  </defs>
  <rect width="900" height="600" fill="url(#a)"/>
  <circle cx="480" cy="118" r="210" fill="url(#d)" filter="url(#f)" opacity=".7"/>
  <circle cx="185" cy="260" r="150" fill="url(#e)" filter="url(#f)" opacity=".45"/>
  <path d="M0 390c150-34 286 28 428-20 164-56 284-26 472 38v192H0z" fill="#021213" opacity=".5"/>
  <g transform="translate(454 372)">
    <g fill="url(#c)" stroke="#cffff0" stroke-width="1.2" stroke-opacity=".55">
      <path d="M0 0C-172-142-220-292-142-346-56-332 12-134 0 0z" opacity=".88"/>
      <path d="M0 0C-103-173-86-333 12-362 82-315 80-104 0 0z" opacity=".95"/>
      <path d="M0 0C-13-206 74-342 174-329 217-255 95-70 0 0z" opacity=".9"/>
      <path d="M0 0C88-177 220-260 304-215 308-127 110-18 0 0z" opacity=".82"/>
      <path d="M0 0C-228-62-333-178-286-255-194-265-25-96 0 0z" opacity=".75"/>
    </g>
    <g stroke="#fff3ce" stroke-width="2.2" stroke-linecap="round" fill="none" opacity=".82">
      <path d="M0 0C-86-158-116-258-142-346"/><path d="M0 0C-33-168-11-278 12-362"/><path d="M0 0C45-170 116-260 174-329"/><path d="M0 0C103-135 228-199 304-215"/><path d="M0 0C-118-82-210-167-286-255"/>
    </g>
    <g stroke="#bfffe7" stroke-width="1" stroke-linecap="round" fill="none" opacity=".55">
      <path d="M-96-226c-24 14-42 29-64 48M-78-191c-30 8-52 21-78 39M-46-255c-16 22-31 45-50 70M-28-214c-19 19-38 38-60 58M9-274c19 22 33 46 48 75M32-232c20 16 42 32 62 54M91-259c9 28 14 55 17 83M124-223c17 19 32 39 46 63M189-165c28 1 54 4 82 12M151-133c29 9 56 20 84 35M-207-178c-24 4-45 11-67 24M-174-143c-27 1-51 7-76 18"/>
    </g>
    <circle cx="0" cy="0" r="20" fill="url(#b)" filter="url(#g)"/>
  </g>
  <g fill="#fff1c8" opacity=".85">
    <circle cx="136" cy="118" r="3"/><circle cx="194" cy="79" r="2"/><circle cx="706" cy="99" r="3"/><circle cx="785" cy="188" r="2"/><circle cx="342" cy="74" r="2"/><circle cx="620" cy="295" r="3"/>
  </g>
</svg>
